<svg id="ic_badge_flight_airplane" xmlns="http://www.w3.org/2000/svg" width="48" height="48" viewBox="0 0 48 48">
  <rect id="Rectangle_2040" data-name="Rectangle 2040" width="48" height="48" fill="#1f212b" opacity="0"/>
  <path id="Path_2884" data-name="Path 2884" d="M15.455,44.557a.5.5,0,0,1-.353-.147,13.8,13.8,0,0,1-1.338-1.6A8.641,8.641,0,0,1,12.6,39.748a6.251,6.251,0,0,0-1.377-3.142A6.23,6.23,0,0,0,8.08,35.229a8.644,8.644,0,0,1-3.062-1.164,13.929,13.929,0,0,1-1.6-1.338.5.5,0,0,1-.146-.355.492.492,0,0,1,.147-.353L5.8,29.651a.514.514,0,0,1,.4-.143l5.509.472,8.686-8.687a7.9,7.9,0,0,0-1.852-1.335,18.809,18.809,0,0,0-5.644-2.1,19.142,19.142,0,0,1-6.2-2.408,14.973,14.973,0,0,1-2.419-2.136l-.833-.824a.5.5,0,0,1,0-.711L6.562,8.654a.491.491,0,0,1,.46-.134l21.5,4.662,9.027-9.028a4.209,4.209,0,0,1,5.857.272A4.393,4.393,0,0,1,44.719,7.3a3.91,3.91,0,0,1-1.046,2.979L34.648,19.31l4.661,21.5a.5.5,0,0,1-.135.46l-3.123,3.123a.5.5,0,0,1-.353.146h0a.5.5,0,0,1-.355-.15l-.827-.837a14.837,14.837,0,0,1-2.133-2.416,19.17,19.17,0,0,1-2.408-6.2,18.785,18.785,0,0,0-2.1-5.645,7.915,7.915,0,0,0-1.336-1.852L17.85,36.125l.472,5.511a.5.5,0,0,1-.144.395L15.81,44.409a.5.5,0,0,1-.354.148ZM4.491,32.363a13.244,13.244,0,0,0,1.1.883,7.758,7.758,0,0,0,2.722,1.01A7.094,7.094,0,0,1,11.93,35.9a7.1,7.1,0,0,1,1.643,3.618,7.753,7.753,0,0,0,1.009,2.72,13.893,13.893,0,0,0,.883,1.1l1.841-1.848-.472-5.511a.5.5,0,0,1,.145-.4L26.165,26.4a.5.5,0,0,1,.676-.029,8.233,8.233,0,0,1,1.9,2.435,19.923,19.923,0,0,1,2.2,5.905,18.012,18.012,0,0,0,2.294,5.914,14.356,14.356,0,0,0,1.982,2.224l.478.483,2.574-2.575-4.661-21.5a.5.5,0,0,1,.134-.459l9.2-9.2a2.921,2.921,0,0,0,.77-2.229A3.377,3.377,0,0,0,42.7,5.141l-.015-.016a3.238,3.238,0,0,0-4.451-.247l-9.2,9.2a.5.5,0,0,1-.459.135L7.076,9.555,4.5,12.13l.48.474a14.922,14.922,0,0,0,2.227,1.987,18.073,18.073,0,0,0,5.913,2.293,19.868,19.868,0,0,1,5.907,2.2,8.258,8.258,0,0,1,2.434,1.9.5.5,0,0,1-.028.676l-9.188,9.188a.488.488,0,0,1-.4.144l-5.511-.472Z" fill="#1f212b"/>
</svg>
