<svg version="1.1" id="Layer_1-dupID" xmlns="http://www.w3.org/2000/svg" xmlns:xlink="http://www.w3.org/1999/xlink" x="0px" y="0px" width="50px" height="50px" viewBox="0 0 150 150" enable-background="new 0 0 150 150" xml:space="preserve">
					<path fill="#76848F" d="M114.49,74.639c0,0.641-9.012,1.238-21.866,1.749c-2.267-1.29-3.983-2.581-5.251-3.7
						C102.964,73.239,114.49,73.922,114.49,74.639"></path>
					<path fill="#76848F" d="M105.255,52.938c0,0.537-7.549,1.039-18.336,1.468c1.544-0.903,3.145-1.814,4.809-2.726
						C99.885,52.059,105.255,52.49,105.255,52.938"></path>
					<path fill="#76848F" d="M24.867,99.618c-4.993,0.06-9.371,0.088-12.797,0.088c-4.926,0-8.911-1.52-8.911-3.399
						c0-1.87,3.984-3.385,8.911-3.385c4.363,0,10.27,0.043,17.042,0.13c-2.618,3.78-3.869,6.061-3.981,6.195
						C25.052,99.359,24.959,99.487,24.867,99.618"></path>
					<path fill="#76848F" d="M27.551,104.17c1.653,1.986,3.229,3.659,5.347,5.485c0,0,0.795,1.137,3.217,0.165
						c2.454-1.002,4.541-2.37,6.898-5.521c6.872,0.11,14.152,0.269,21.325,0.431c0.59,0.855,1.783,2.634,3.268,4.829
						c-19.991,0.521-41.688,0.823-52.802,0.823c-4.632,0-8.386-1.437-8.386-3.19c0-1.769,3.754-3.201,8.386-3.201
						c3.384,0,7.739,0.028,12.731,0.08C27.536,104.118,27.551,104.17,27.551,104.17"></path>
					<path fill="#76848F" d="M19.818,120.837c-4.105,0-7.432-1.263-7.432-2.821c0-1.562,3.327-2.831,7.432-2.831
						c10.871,0,33.158,0.33,52.234,0.871c0.922,1.318,1.839,2.629,2.71,3.83C55.116,120.466,31.207,120.837,19.818,120.837"></path>
					<path fill="#76848F" d="M83.196,129.904c-16.027,0.7-43.574,1.173-55.027,1.173c-3.225,0-5.842-1.003-5.842-2.219
						c0-1.232,2.618-2.23,5.842-2.23c10.956,0,36.667,0.43,52.898,1.078C81.801,128.495,82.519,129.231,83.196,129.904"></path>
					<path fill="#76848F" d="M41.394,135.919c9.446,0,38.231,0.715,38.231,1.574c0,0.875-28.785,1.579-38.231,1.579
						c-1.849,0-3.336-0.704-3.336-1.579C38.058,136.634,39.545,135.919,41.394,135.919"></path>
					<path fill="#76848F" d="M41.492,77.718c-11.893,0.2-22.568,0.317-29.422,0.317c-4.926,0-8.911-1.518-8.911-3.398
						c0-1.873,3.984-3.397,8.911-3.397c7.971,0,21.069,0.152,35.269,0.421C45.229,73.745,43.279,75.777,41.492,77.718"></path>
					<path fill="#76848F" d="M99.861,62.543c6.976,0.378,11.359,0.785,11.359,1.225c0,0.477-5.307,0.927-13.522,1.336
						C99.455,63.781,99.837,62.629,99.861,62.543"></path>
					<path fill="#76848F" d="M14.804,66.956c-4.632,0-8.386-1.43-8.386-3.189c0-1.77,3.754-3.201,8.386-3.201
						c9.505,0,26.735,0.232,44.018,0.612c-2.113,1.796-4.126,3.56-6.026,5.29C37.624,66.778,23.199,66.956,14.804,66.956"></path>
					<path fill="#76848F" d="M66.468,55.047c-17.677,0.449-36.827,0.722-46.65,0.722c-4.107,0-7.432-1.262-7.432-2.831
						c0-1.558,3.325-2.83,7.432-2.83c10.842,0,33.07,0.334,52.126,0.875c-0.946,0.694-1.907,1.381-2.875,2.105
						C68.192,53.746,67.323,54.392,66.468,55.047"></path>
					<path fill="#76848F" d="M28.169,44.319c-3.225,0-5.842-0.992-5.842-2.224c0-1.229,2.618-2.222,5.842-2.222
						c12.151,0,42.476,0.529,57.866,1.3c-0.976,0.645-1.956,1.31-2.949,1.979C67.041,43.846,39.594,44.319,28.169,44.319"></path>
					<path fill="#76848F" d="M11.148,88.929c-5.008,0-9.081-1.542-9.081-3.456c0-1.907,4.075-3.451,9.081-3.451
						c6.283,0,15.683,0.09,26.322,0.252c-2.007,2.353-3.738,4.531-5.229,6.479C23.783,88.866,16.378,88.929,11.148,88.929"></path>
					<path fill="#76848F" d="M38.058,33.457c0-0.87,1.487-1.578,3.336-1.578c9.446,0,38.231,0.708,38.231,1.578
						c0,0.865-28.785,1.583-38.231,1.583C39.545,35.04,38.058,34.323,38.058,33.457"></path>
					<path fill="#63003D" d="M115.43,82.917c0.063,1.719,0.058,3.43-0.03,5.109c-16.747,0.659-32.624,1.674-32.624,2.807
						c0,1.113,15.524,2.113,32.08,2.772c-0.294,1.912-0.673,3.786-1.126,5.621c-16.321,0.672-31.467,1.655-31.467,2.76
						c0,1.064,14.137,2.022,29.8,2.691c-0.724,1.994-1.541,3.937-2.451,5.797c-13.441,0.645-24.552,1.508-24.552,2.451
						c0,0.876,9.708,1.691,21.942,2.318c-0.682,1.116-1.403,2.217-2.151,3.25c-0.792,1.127-1.657,2.246-2.58,3.345
						c-7.645,0.583-12.898,1.239-12.898,1.948c0,0.606,3.763,1.176,9.559,1.685c-3.172,3.129-6.909,6.052-11.31,8.604
						c0,0-5.193-4.47-9.462-9.683c-3.826-4.656-11.917-16.918-13.827-19.662c-1.905-2.744-3.155-3.547-5.392-2.754
						c-2.983,1.056-6.462,1.589-7.535,1.589c-1.065,0-1.655-0.415,0.137-1.127c1.791-0.718,8.849-4.051,12.323-10.937
						c3.901-7.753,0.467-18.461,0.467-18.461c-1.306,5.723-4.288,7.857-4.288,7.857c0.961-5.309-0.081-10.133-2.71-13.513L55.87,74.11
						c0,0-0.917-0.042-3.179,1.862c-2.271,1.908-2.893,4.686-2.893,4.686c1.787,0.721,3.928-1.068,3.928-1.068
						c-2.737,10.244-6.666,18.584-9.533,22.993c-2.857,4.412-5.219,6.077-8.08,7.237c-2.421,0.972-3.217-0.166-3.217-0.166
						c-2.118-1.827-3.693-3.5-5.347-5.487c0,0-0.13-0.231,0.321-0.222c1.175,0.015,3.273-2.003,3.731-2.838
						c0.518-0.956,0.467-1.688,0.201-1.745c-0.258-0.04-0.707,0.72-2.972,2.155c-2.267,1.428-3.299,0.435-4.059-0.36
						c-0.581-0.631-0.016-1.42,0.358-1.911c0.344-0.436,12.301-22.729,43.938-46.159c41.465-30.699,67.944-38.986,69.458-39.583
						c1.007-0.396,2.64-0.918,3.009-0.535c0.42,0.429,0.616,0.772,0.557,1.273c-0.046,0.495-0.314,0.756-2.229,1.599
						c-15.925,7.011-34.496,18.703-45.052,25.503C81.821,47.67,69.427,56.706,68.975,56.92c-0.999,0.619-0.258,1.524,0.343,1.146
						c21.921-14.583,47.629-24.511,76.026-32.651c1.356-0.387,2.106-0.387,2.329-0.087c0.253,0.333,0.368,0.713,0.405,1.13
						c0.039,0.516-0.395,0.792-1.562,1.255C116.008,39.044,93.515,49.576,79.05,59.305c0,0-1.506,0.904-1.518,1.951
						c-0.004,0.397,0.804,0.442,0.804,0.442c7.246,0.131,16.922,0.559,21.524,0.824c0,0-0.65,2.333-5.064,4.212
						c-3.408,1.454-6.56,1.218-9.677,1.244c-0.698-0.01-1.28,0.688-0.726,1.434C84.674,69.787,91.311,80.477,115.43,82.917"></path>
					</svg>